<svg width="43" height="43" viewBox="0 0 43 43" fill="none" xmlns="http://www.w3.org/2000/svg">
<g id="Component 45">
<path id="Vector" d="M39.8661 0.228437C40.052 0.351088 40.2043 0.516992 40.3098 0.711505C40.4153 0.906018 40.4706 1.12316 40.4708 1.34375V21.5C40.4708 21.7684 40.3893 22.0305 40.2368 22.2528C40.0844 22.475 39.868 22.6472 39.6155 22.747L39.6073 22.7497L39.591 22.7578L39.5284 22.7819C39.1703 22.9226 38.8098 23.057 38.4469 23.1851C37.7278 23.4404 36.7281 23.7844 35.5949 24.1257C33.3722 24.8029 30.4766 25.5312 28.2129 25.5312C25.9057 25.5312 23.9962 24.7788 22.3346 24.1203L22.2583 24.0934C20.5313 23.4081 19.0604 22.8438 17.317 22.8438C15.4102 22.8438 12.8551 23.4619 10.6787 24.1257C9.70434 24.4258 8.73876 24.7529 7.78306 25.1066V41.6562C7.78306 42.0126 7.63957 42.3544 7.38415 42.6064C7.12872 42.8584 6.7823 43 6.42107 43C6.05985 43 5.71342 42.8584 5.458 42.6064C5.20258 42.3544 5.05908 42.0126 5.05908 41.6562V1.34375C5.05908 0.987365 5.20258 0.645577 5.458 0.393575C5.71342 0.141573 6.05985 0 6.42107 0C6.7823 0 7.12872 0.141573 7.38415 0.393575C7.63957 0.645577 7.78306 0.987365 7.78306 1.34375V2.10162C8.39868 1.88931 9.13416 1.64475 9.93501 1.40288C12.1578 0.731 15.0561 0 17.317 0C19.6051 0 21.4684 0.744438 23.0946 1.39481L23.2117 1.44319C24.906 2.11775 26.3824 2.6875 28.2129 2.6875C30.1197 2.6875 32.6748 2.06938 34.8513 1.40556C36.0912 1.02251 37.3169 0.595825 38.5259 0.126312L38.5777 0.1075L38.5886 0.102125H38.5913M37.7469 3.28144C37.1476 3.49106 36.4394 3.73025 35.6603 3.96675C33.4539 4.644 30.561 5.37231 28.2129 5.37231C25.7995 5.37231 23.8764 4.60369 22.212 3.93719L22.1902 3.92913C20.4823 3.25187 19.0576 2.6875 17.317 2.6875C15.4947 2.6875 12.9423 3.30294 10.7386 3.97213C9.7445 4.27432 8.75897 4.60322 7.78306 4.95844V22.2471C8.38234 22.0375 9.09058 21.7983 9.86963 21.5618C12.0761 20.8819 14.9689 20.1562 17.317 20.1562C19.6242 20.1562 21.5337 20.9087 23.1954 21.5672L23.2716 21.5941C24.9986 22.2794 26.4696 22.8438 28.2129 22.8438C30.0325 22.8438 32.5876 22.2283 34.7913 21.5591C35.7854 21.2569 36.771 20.928 37.7469 20.5728V3.28413V3.28144Z" fill="black"/>
</g>
</svg>
