<svg width="24" height="25" viewBox="0 0 24 25" fill="none" xmlns="http://www.w3.org/2000/svg">
<g id="ant-design:alert-outlined">
<path id="Vector" d="M4.37665 18.2904C4.37665 18.709 4.71827 19.0472 5.14113 19.0472H18.8541C19.2769 19.0472 19.6186 18.709 19.6186 18.2904V12.7803C19.6186 8.61341 16.207 5.23638 11.9976 5.23638C7.78816 5.23638 4.37665 8.61341 4.37665 12.7803V18.2904ZM6.09674 12.7803C6.09674 9.55462 8.73898 6.93908 11.9976 6.93908C15.2562 6.93908 17.8985 9.55462 17.8985 12.7803V17.3445H9.41746V13.3006C9.41746 13.1705 9.30996 13.0641 9.17856 13.0641H8.1274C7.996 13.0641 7.8885 13.1705 7.8885 13.3006V17.3445H6.09674V12.7803ZM4.94762 6.80902L5.89367 5.87253C5.96773 5.79922 5.96773 5.67861 5.89367 5.6053L4.27153 3.99956C4.23561 3.96435 4.1871 3.9446 4.13655 3.9446C4.086 3.9446 4.03749 3.96435 4.00157 3.99956L3.05552 4.93604C3.01995 4.9716 3 5.01962 3 5.06966C3 5.1197 3.01995 5.16772 3.05552 5.20327L4.67766 6.80902C4.75172 6.88233 4.87117 6.88233 4.94762 6.80902ZM20.9445 4.93604L19.9984 3.99956C19.9625 3.96435 19.914 3.9446 19.8634 3.9446C19.8129 3.9446 19.7644 3.96435 19.7284 3.99956L18.1063 5.6053C18.0707 5.64086 18.0508 5.68888 18.0508 5.73891C18.0508 5.78895 18.0707 5.83697 18.1063 5.87253L19.0524 6.80902C19.1264 6.88233 19.2483 6.88233 19.3223 6.80902L20.9445 5.20327C21.0185 5.1276 21.0185 5.00935 20.9445 4.93604ZM19.6424 20.5607H4.35276C3.9299 20.5607 3.58827 20.8989 3.58827 21.3175V21.885C3.58827 21.9891 3.67428 22.0742 3.77939 22.0742H20.2158C20.3209 22.0742 20.4069 21.9891 20.4069 21.885V21.3175C20.4069 20.8989 20.0653 20.5607 19.6424 20.5607ZM11.3287 3.72287H12.6665C12.7716 3.72287 12.8576 3.63773 12.8576 3.53368V1.26341C12.8576 1.15935 12.7716 1.07422 12.6665 1.07422H11.3287C11.2236 1.07422 11.1376 1.15935 11.1376 1.26341V3.53368C11.1376 3.63773 11.2236 3.72287 11.3287 3.72287Z" fill="#B32C36"/>
</g>
</svg>
